<svg viewBox="-0.7 -0.6 27 30" xml:space="preserve" xmlns="http://www.w3.org/2000/svg"><path clip-rule="evenodd" d="M24.7 23.6H6.3c-.5 0-1.3-.9-1.3-1.4V1.4C5 .9 5.9 0 6.3 0H20l6 6.7v15.6c0 .5-.9 1.3-1.3 1.3zM7.4 3.8v16c0 .4.7 1.1 1 1.1h14.1c.4 0 1-.7 1-1V9.6h-6.4V2.7H8.5c-.4 0-1.1.7-1.1 1.1zM19 2.7v5.1h4.6L19 2.7zM2.4 8.8v16c0 .4.7 1.1 1 1.1h14.1c.3 0 .9-.5 1-.9H21v2.3c0 .5-.9 1.3-1.3 1.3H1.3c-.5 0-1.3-.9-1.3-1.4V6.4C0 5.9.9 5 1.3 5H4v2.7h-.5c-.4 0-1.1.7-1.1 1.1z" fill="#3b4147" fill-rule="evenodd" class="fill-0d0d0d"></path></svg>