<svg viewBox="0 0 24 24" xml:space="preserve" xmlns="http://www.w3.org/2000/svg"><path d="M22.918 13.262c.056-.463.082-.867.082-1.262 0-6.065-4.935-11-11-11-.39 0-.794.026-1.262.082A6.963 6.963 0 0 0 7 0C3.14 0 0 3.14 0 7c0 1.332.374 2.62 1.082 3.738A10.41 10.41 0 0 0 1 12c0 6.065 4.935 11 11 11 .39 0 .794-.026 1.262-.082A6.963 6.963 0 0 0 17 24c3.86 0 7-3.14 7-7 0-1.332-.374-2.62-1.082-3.738z" fill="#ecb830" class="fill-19bef0"></path><path d="M17 23.75a6.963 6.963 0 0 1-3.738-1.082c-.468.056-.872.082-1.262.082-6.032 0-10.941-4.881-10.995-10.9 0 .049-.005.1-.005.15 0 6.065 4.935 11 11 11 .39 0 .794-.026 1.262-.082A6.963 6.963 0 0 0 17 24c3.86 0 7-3.14 7-7 0-.035-.007-.07-.007-.105-.079 3.793-3.183 6.855-6.993 6.855z" fill="#ffffff" opacity=".1" class="fill-010101"></path><path d="M7 .25c1.331 0 2.62.374 3.738 1.082.468-.056.872-.082 1.262-.082 6.032 0 10.941 4.881 10.995 10.9 0-.049.005-.1.005-.15 0-6.065-4.935-11-11-11-.39 0-.794.026-1.262.082A6.963 6.963 0 0 0 7 0C3.14 0 0 3.14 0 7c0 .035.007.07.007.105C.086 3.312 3.19.25 7 .25z" fill="#FFFFFF" opacity=".2" class="fill-ffffff"></path><path d="M12.254 10.113C9.578 9.393 9 9.019 9 8c0-.306.944-1 2.5-1 1.411 0 2.278.436 2.507.64C14.077 8.4 14.72 9 15.5 9c.827 0 1.5-.673 1.5-1.5C17 5.505 14.636 4 11.5 4 8.416 4 6 5.757 6 8c0 3.539 3.164 4.389 5.476 5.01C14.374 13.79 15 14.23 15 15.5c0 .612-1.169 1.5-3 1.5-2.021 0-2.957-.695-3.007-.985C8.847 15.17 8.247 14.6 7.5 14.6c-.827 0-1.5.673-1.5 1.5 0 2.223 2.58 3.9 6 3.9 3.364 0 6-1.977 6-4.5 0-3.844-3.458-4.772-5.746-5.387z" fill="#FFFFFF" class="fill-ffffff"></path><linearGradient gradientUnits="userSpaceOnUse" id="a" x1="8.266" x2="21.77" y1="8.62" y2="22.124"><stop offset="0" stop-color="#ffffff" stop-opacity=".1" class="stop-color-010101"></stop><stop offset="1" stop-color="#ffffff" stop-opacity="0" class="stop-color-010101"></stop></linearGradient><path d="M22.918 13.262c.036-.3.056-.573.068-.838l-6.853-6.853C16.68 6.118 17 6.775 17 7.5c0 .827-.673 1.5-1.5 1.5-.78 0-1.423-.599-1.493-1.36C13.778 7.435 12.91 7 11.5 7 9.944 7 9 7.694 9 8c0 1.019.578 1.394 3.254 2.113C14.542 10.728 18 11.656 18 15.5c0 2.523-2.636 4.5-6 4.5-1.914 0-3.563-.525-4.646-1.377l4.363 4.363c.095.002.187.014.283.014.39 0 .794-.026 1.262-.082A6.963 6.963 0 0 0 17 24c3.86 0 7-3.14 7-7 0-1.332-.374-2.62-1.082-3.738z" fill="url(#a)" class="fillurl(-a)"></path><linearGradient gradientUnits="userSpaceOnUse" id="b" x1="-.366" x2="24.366" y1="6.234" y2="17.766"><stop offset="0" stop-color="#ffffff" stop-opacity=".2" class="stop-color-ffffff"></stop><stop offset="1" stop-color="#ffffff" stop-opacity="0" class="stop-color-ffffff"></stop></linearGradient><path d="M22.918 13.262c.056-.463.082-.867.082-1.262 0-6.065-4.935-11-11-11-.39 0-.794.026-1.262.082A6.963 6.963 0 0 0 7 0C3.14 0 0 3.14 0 7c0 1.332.374 2.62 1.082 3.738A10.41 10.41 0 0 0 1 12c0 6.065 4.935 11 11 11 .39 0 .794-.026 1.262-.082A6.963 6.963 0 0 0 17 24c3.86 0 7-3.14 7-7 0-1.332-.374-2.62-1.082-3.738z" fill="url(#b)" class="fillurl(-b)"></path></svg>